<svg xmlns="http://www.w3.org/2000/svg" xmlns:xlink="http://www.w3.org/1999/xlink" aria-hidden="true" role="img" class="iconify iconify--logos" width="35.93" height="32" preserveAspectRatio="xMidYMid meet" viewBox="0 0 256 228"><path fill="#00D8FF" d="M210.483 73.824a171.49 171.49 0 0 0-8.24-2.597c.465-1.9.893-3.777 1.273-5.621c6.238-30.281 2.16-54.676-11.769-62.708c-13.355-7.7-35.196.329-57.254 19.526a171.23 171.23 0 0 0-6.375 5.848a155.866 155.866 0 0 0-4.241-3.917C100.759 3.829 77.587-4.822 63.673 3.233C50.33 10.957 46.379 33.89 51.995 62.588a170.974 170.974 0 0 0 1.892 8.48c-3.28.932-6.445 1.924-9.474 2.98C17.309 83.498 0 98.307 0 113.668c0 15.865 18.582 31.778 46.812 41.427a145.52 145.52 0 0 0 6.921 2.165a167.467 167.467 0 0 0-2.01 9.138c-5.354 28.2-1.173 50.591 12.134 58.266c13.744 7.926 36.812-.22 59.273-19.855a145.567 145.567 0 0 0 5.342-4.923a168.064 168.064 0 0 0 6.92 6.314c21.758 18.722 43.246 26.282 56.54 18.586c13.731-7.949 18.194-32.003 12.4-61.268a145.016 145.016 0 0 0-1.535-6.842c1.62-.48 3.21-.985 4.77-1.51c29.042-9.792 48.433-25.442 48.433-41.166c0-15.135-18.108-30.27-46.002-39.983Zm-24.294 62.024a284.548 284.548 0 0 1-7.108 2.063a309.796 309.796 0 0 0-9.282-27.606a312.155 312.155 0 0 0 8.892-26.12a285.68 285.68 0 0 1 8.212 2.17c19.888 5.784 34.632 14.662 34.632 25.313c0 11.268-15.71 20.79-35.346 24.18ZM110.66 177.844a287.21 287.21 0 0 1-11.69-18.814c3.87.115 7.824.176 11.84.176c4.096 0 8.12-.062 12.04-.187a287.2 287.2 0 0 1-12.19 18.825Zm-29.49-61.81a303.768 303.768 0 0 0-3.685 9.103a287.42 287.42 0 0 1-6.97-14.148a282.07 282.07 0 0 1 14.06-3.75a300.448 300.448 0 0 0-3.405 8.795Zm1.312 29.898a291.25 291.25 0 0 1 5.63-11.33a291.37 291.37 0 0 1 6.248-11.03a294.96 294.96 0 0 1 24.04-2.134c8.508 0 16.75.645 24.505 1.926a294.96 294.96 0 0 1 12.008 22.733a289.543 289.543 0 0 1-11.517 22.135a289.645 289.645 0 0 1-24.496 1.956c-8.35 0-16.557-.627-24.266-1.863a290.99 290.99 0 0 1-12.152-22.393Zm119.18-34.246a285.546 285.546 0 0 1 4.61 2.03c-1.412 4.89-3.123 9.892-5.097 14.954a295.47 295.47 0 0 0-4.832-10.226c1.804-2.297 3.615-4.551 5.32-6.758ZM128.1 40.05c5.32 5.678 10.628 11.953 15.776 18.814c-10.456-.485-21.03-.487-31.454 0c5.092-6.808 10.362-13.047 15.678-18.814Zm-52.14 13.798c1.69 2.17 3.484 4.38 5.316 6.626a306.728 306.728 0 0 0-4.74 10.092a285.547 285.547 0 0 1-5.144-14.73a290.632 290.632 0 0 1 4.568-1.988Zm-37.416 87.42c-18.498-6.242-31.294-15.152-31.294-24.6c0-9.93 14.066-19.504 33.59-25.818c2.44-.794 5.024-1.551 7.728-2.275a307.74 307.74 0 0 0 9.698 27.848a309.634 309.634 0 0 0-9.722 24.845ZM63.155 207.17c-8.068-4.662-10.894-20.584-6.39-42.174a142.746 142.746 0 0 1 1.677-7.59c7.348 1.637 15.109 2.914 23.18 3.822a299.4 299.4 0 0 0 15.085 18.72a122.05 122.05 0 0 1-4.55 4.197c-16.928 14.655-32.298 22.237-29.002 23.025Zm102.21-23.024a122.042 122.042 0 0 1-4.69-4.348a295.932 295.932 0 0 0 14.76-18.552c8.252-.916 16.181-2.218 23.694-3.903a141.706 141.706 0 0 1 1.95 8.362c4.59 22.247 1.296 38.714-6.966 43.504c-8.008 4.628-22.77-1.534-38.748-15.063v-.001Zm14.345-28.312a286.25 286.25 0 0 1-7.298-2.032a310.606 310.606 0 0 0 9.166-26.315a308.02 308.02 0 0 0 9.337 27.122a286.65 286.65 0 0 1-11.205 1.225Z"></path><path fill="#00D8FF" d="M128.008 90.785c12.622 0 22.858 10.224 22.858 22.828s-10.236 22.827-22.858 22.827c-12.622 0-22.859-10.223-22.859-22.827s10.237-22.828 22.86-22.828Z"></path></svg>

